<?xml version="1.0" encoding="UTF-8" standalone="no"?>
<!DOCTYPE svg PUBLIC "-//W3C//DTD SVG 1.1//EN" "http://www.w3.org/Graphics/SVG/1.1/DTD/svg11.dtd">
<svg width="100%" height="100%" viewBox="0 0 610 1080" version="1.1" xmlns="http://www.w3.org/2000/svg" xmlns:xlink="http://www.w3.org/1999/xlink" xml:space="preserve" xmlns:serif="http://www.serif.com/" style="fill-rule:evenodd;clip-rule:evenodd;stroke-linejoin:round;stroke-miterlimit:2;">
    <g transform="matrix(1,0,0,1,-235.437478,2.175642)">
        <g transform="matrix(0.651947,0,0,0.648491,-603.474613,-264.129251)">
            <g transform="matrix(1,0,0,1,169.840822,65.222895)">
                <path d="M1420.423,1650.957C1443.727,1660.337 1449.449,1697.88 1454.434,1703.92C1465.265,1717.044 1483.317,1759.169 1519.449,1759.169C1520.285,1759.169 1521.167,1759.144 1522.075,1758.977C1612.991,1742.257 1680.317,1637.164 1700.617,1588.096C1751.506,1465.092 1753.724,1372.004 1753.937,1305.742C1754.062,1266.852 1745.199,1202.522 1736.035,1174.581C1728.35,1151.152 1691.132,1138.812 1667.908,1139.414C1645.755,1139.989 1620.854,1149.797 1600.205,1169.405C1573.605,1194.664 1539.853,1251.887 1519.735,1288.769C1502.244,1320.837 1488.665,1357.84 1479.5,1390.698C1470.871,1421.637 1470.559,1454.628 1464.747,1485.921C1460.213,1510.338 1456.137,1530.537 1456.455,1551.146C1456.542,1556.734 1456.952,1562.353 1457.763,1568.094C1457.854,1568.741 1457.942,1569.385 1458.025,1570.024C1457.933,1586.382 1453.393,1608.509 1430.923,1622.536C1425.019,1624.909 1417.974,1626.942 1409.602,1628.617C1388.19,1628.868 1365.607,1614.449 1360.575,1594.324C1345.032,1614.307 1319.874,1630.187 1297.125,1618.813C1278.224,1609.362 1287.93,1571.864 1289.392,1561.632C1260.263,1581.051 1251.58,1568.028 1249.816,1565.381C1246.915,1561.029 1244.931,1556.563 1243.647,1552.104C1240.628,1535.813 1243.472,1520.34 1248.782,1505.693C1250.388,1501.262 1252.22,1496.907 1254.183,1492.627C1271.618,1454.628 1322.832,1394.419 1354.771,1343.757C1387.183,1292.346 1422.947,1235.346 1448.653,1184.158C1472.497,1136.677 1491.733,1086.876 1509.006,1036.629C1528.676,979.406 1556.394,895.806 1566.676,840.818C1574.897,796.854 1573.382,730.395 1570.7,706.701C1569.887,699.525 1556.016,693.897 1550.582,698.654C1533.689,713.444 1495.251,761.989 1469.343,795.44C1434.026,841.04 1369.971,929.559 1338.677,972.253C1319.252,998.754 1329.702,1030.902 1303.933,1053.699C1295.943,1060.768 1280.595,1065.187 1271.959,1066.145C1265.143,1066.9 1256.197,1064.892 1247.196,1058.741C1238.597,1052.866 1237.983,1032.017 1236.407,1032.805C1218.347,1041.835 1211.304,1072.367 1172.683,1038.339C1155.904,1023.555 1161.878,982.645 1162.822,980.758C1164.57,977.261 1150.622,990.713 1137.14,972.737C1135.028,969.921 1133.502,967.008 1132.466,964.049C1131.94,954.614 1132.486,945.037 1134.379,935.937C1135.433,930.871 1136.905,925.953 1138.842,921.289C1150.913,892.23 1230.429,848.027 1263.722,827.643C1319.03,793.779 1392.927,755.704 1452.151,692.699C1526.667,613.426 1553.264,507.537 1589.476,473.337C1607.54,456.277 1642.256,445.542 1649.529,469.3C1662.94,513.112 1660.907,670.01 1656.213,734.834C1652.814,781.769 1645.262,827.064 1635.076,873.006C1624.123,922.406 1606.241,1001.535 1604.229,1032.606C1603.524,1043.497 1612.103,1059.936 1623.005,1059.429C1642.229,1058.535 1690.511,1025.453 1719.57,1027.241C1748.628,1029.029 1781.645,1045.057 1797.357,1070.158C1815.687,1099.441 1823.697,1157.771 1829.546,1202.934C1836.927,1259.934 1842.094,1348.004 1841.647,1412.157C1841.238,1470.927 1837.653,1530.078 1826.863,1587.85C1784.822,1812.964 1645.721,1901.684 1590.817,1935.214C1540.866,1965.718 1473.306,1985.536 1425.918,1987.324C1383.773,1988.914 1334.506,1974.282 1302.094,1955.282C1272.596,1937.99 1236.626,1903.691 1221.253,1873.149C1209.786,1850.368 1205.15,1814.898 1204.51,1784.097C1205.921,1773.992 1210.015,1762.977 1219.447,1751.187C1221.588,1748.511 1242.072,1743.556 1247.305,1746.172C1255.505,1750.272 1258.26,1760.265 1257.335,1752.858C1257.066,1750.713 1251.15,1735.8 1250.648,1717.757C1250.154,1699.969 1248.466,1689.027 1269.592,1673.183C1279.184,1665.989 1319.04,1667.504 1330.881,1688.226C1337.663,1700.094 1337.098,1702.098 1337.568,1701.041C1342.797,1689.276 1349.922,1664.328 1359.643,1656.923C1371.155,1648.154 1392.812,1639.845 1420.423,1650.957Z" style="fill:rgb(171,194,101);"/>
            </g>
            <g transform="matrix(0.865412,0.377789,-0.377789,0.865412,610.500776,-491.591564)">
                <path d="M1990.056,496.144C1956.689,511.858 1906.773,543.995 1879.777,559.925C1857.701,572.952 1834.972,585.431 1815.401,601.984C1794.427,619.723 1768.1,656.775 1753.937,666.36C1747.175,670.937 1734.485,666.577 1730.424,659.494C1725.504,650.91 1717.643,628.257 1724.416,614.859C1737.577,588.823 1783.356,539.039 1809.392,503.274C1833.962,469.524 1861.322,425.021 1880.635,400.272C1884.163,395.752 1887.591,390.908 1891.107,386.096C1895.91,379.522 1900.878,373.007 1906.485,367.458C1917.327,359.604 1931.541,354.397 1942.149,356.541C1968.04,361.774 1964.192,400.234 1964.192,400.234C1964.192,400.234 2001.001,370.552 2017.028,398.365C2032.156,424.616 1995.577,439.272 1998.224,440.173C2006.425,442.966 2021.329,445.74 2022.301,460.312C2022.314,460.51 2028.413,487.315 2002.889,490.638C1999,492.099 1994.688,493.963 1990.056,496.144Z" style="fill:rgb(171,194,101);"/>
            </g>
            <g transform="matrix(2.087943,0,0,2.087943,-1593.437661,-522.572131)">
                <path d="M1546.317,470.059C1552.25,465.749 1560.264,465.749 1566.197,470.059C1568.608,471.811 1571.161,473.666 1573.488,475.356C1578.432,478.948 1580.501,485.34 1578.607,491.17C1577.729,493.872 1576.767,496.832 1575.857,499.634C1573.577,506.65 1567.068,511.397 1559.726,511.397L1553.854,511.397C1545.876,511.397 1538.803,506.239 1536.326,498.615C1535.744,496.825 1535.149,494.991 1534.573,493.219C1532.282,486.168 1534.785,478.438 1540.764,474.094C1542.59,472.767 1544.494,471.384 1546.317,470.059Z" style="fill:rgb(171,194,101);"/>
            </g>
            <g transform="matrix(2.087943,0,0,2.087943,-1358.630358,-547.01461)">
                <path d="M1546.317,470.059C1552.25,465.749 1560.264,465.749 1566.197,470.059C1568.608,471.811 1571.161,473.666 1573.488,475.356C1578.432,478.948 1580.501,485.34 1578.607,491.17C1577.729,493.872 1576.767,496.832 1575.857,499.634C1573.577,506.65 1567.068,511.397 1559.726,511.397L1553.854,511.397C1545.876,511.397 1538.803,506.239 1536.326,498.615C1535.744,496.825 1535.149,494.991 1534.573,493.219C1532.282,486.168 1534.785,478.438 1540.764,474.094C1542.59,472.767 1544.494,471.384 1546.317,470.059Z" style="fill:rgb(171,194,101);"/>
            </g>
        </g>
    </g>
</svg>
